HIERARCHY
ROOT Hips
{
	OFFSET 0.000000 88.474243 0.000000
	CHANNELS 6 Xposition Yposition Zposition Zrotation Yrotation Xrotation 
	JOINT Hips_Spine
	{
		OFFSET 0.000000 0.000000 0.000000
		CHANNELS 3 Zrotation Yrotation Xrotation
		JOINT Spine
		{
			OFFSET 0.005100 8.711998 -0.691000
			CHANNELS 3 Zrotation Yrotation Xrotation
			JOINT Spine1
			{
				OFFSET -0.009200 8.660301 -1.275000
				CHANNELS 3 Zrotation Yrotation Xrotation
				JOINT Spine2
				{
					OFFSET 0.006300 9.852501 -1.857000
					CHANNELS 3 Zrotation Yrotation Xrotation
					JOINT Spine2_Neck
					{
						OFFSET 0.000000 0.000000 0.000000
						CHANNELS 3 Zrotation Yrotation Xrotation
						JOINT Neck
						{
							OFFSET 0.016300 11.420799 -0.263300
							CHANNELS 3 Zrotation Yrotation Xrotation
							End Site #name: Head
							{
								OFFSET -0.019200 9.262405 2.362500
							}
						}
					}
					JOINT Spine2_LeftShoulder
					{
						OFFSET 0.000000 0.000000 0.000000
						CHANNELS 3 Zrotation Yrotation Xrotation
						JOINT LeftShoulder
						{
							OFFSET 5.616900 6.732201 -0.345700
							CHANNELS 3 Zrotation Yrotation Xrotation
							JOINT LeftArm
							{
								OFFSET 10.664888 -0.183372 -2.440700
								CHANNELS 3 Zrotation Yrotation Xrotation
								JOINT LeftForeArm
								{
									OFFSET 27.459126 0.000000 0.000000
									CHANNELS 3 Zrotation Yrotation Xrotation
									End Site #name: LeftHand
									{
										OFFSET 21.306858 0.000000 0.000000
									}
								}
							}
						}
					}
					JOINT Spine2_RightShoulder
					{
						OFFSET 0.000000 0.000000 0.000000
						CHANNELS 3 Zrotation Yrotation Xrotation
						JOINT RightShoulder
						{
							OFFSET -5.580300 6.737503 -0.344400
							CHANNELS 3 Zrotation Yrotation Xrotation
							JOINT RightArm
							{
								OFFSET -10.679335 -0.188484 -2.383900
								CHANNELS 3 Zrotation Yrotation Xrotation
								JOINT RightForeArm
								{
									OFFSET -27.503529 0.000000 0.000000
									CHANNELS 3 Zrotation Yrotation Xrotation
									End Site #name: RightHand
									{
										OFFSET -21.306808 0.000000 0.000000
									}
								}
							}
						}
					}
				}
			}
		}
	}
	JOINT Hips_LeftUpLeg
	{
		OFFSET 0.000000 0.000000 0.000000
		CHANNELS 3 Zrotation Yrotation Xrotation
		JOINT LeftUpLeg
		{
			OFFSET 6.857700 -6.739601 0.312100
			CHANNELS 3 Zrotation Yrotation Xrotation
			JOINT LeftLeg
			{
				OFFSET -0.367590 -34.731552 -4.572400
				CHANNELS 3 Zrotation Yrotation Xrotation
				End Site #name: LeftFoot
				{
					OFFSET 0.367590 -34.656704 -6.067400
				}
			}
		}
	}
	JOINT Hips_RightUpLeg
	{
		OFFSET 0.000000 0.000000 0.000000
		CHANNELS 3 Zrotation Yrotation Xrotation
		JOINT RightUpLeg
		{
			OFFSET -6.876100 -6.733299 0.301000
			CHANNELS 3 Zrotation Yrotation Xrotation
			JOINT RightLeg
			{
				OFFSET 0.347353 -34.795158 -4.515900
				CHANNELS 3 Zrotation Yrotation Xrotation
				End Site #name: RightFoot
				{
					OFFSET -0.347353 -34.589367 -6.070300
				}
			}
		}
	}
}
MOTION
Frames: 12
Frame Time: 0.041667
0.136710 0.060306 0.011288 -0.591325 16.737487 -6.869087 0.000000 0.000000 0.000000 -0.343753 -0.217946 0.277887 -0.735113 -0.813312 0.236851 0.000000 0.000000 0.000000 -0.468779 -0.705242 -0.512087 2.837298 0.013653 -5.817903 -0.054069 -1.365671 -1.617340 -16.644831 -11.597294 2.709628 -45.067821 1.254732 15.708599 1.618992 -20.821707 3.574277 -0.944047 -0.302657 0.470600 14.489246 10.893515 4.319077 58.690402 -1.914520 -3.257724 0.152705 48.559736 0.885714 0.000000 0.000000 0.000000 -6.233667 15.189233 -5.858879 1.076564 1.394495 22.187842 0.000000 0.000000 0.000000 -0.823288 5.423437 -5.764738 3.382190 -2.131871 -3.855232 
0.512710 0.016817 0.115336 0.614086 20.271340 -7.512551 0.000000 0.000000 0.000000 -2.687812 -0.264206 -1.523800 -0.519517 -0.720306 -0.033651 0.000000 0.000000 0.000000 -1.106567 -0.460082 -1.119180 3.815067 -0.956760 -4.600913 -0.879928 -0.745315 -1.942692 -23.966808 -7.910325 1.374102 -39.866528 4.112461 11.250905 -0.211443 -16.513386 1.334629 -1.362191 -0.376268 -0.039331 15.052660 8.163963 1.981250 60.618448 0.514779 -1.853245 -0.010523 43.696315 -0.317538 0.000000 0.000000 -0.000000 -7.821689 14.206973 -4.479296 -0.173282 3.063709 20.946947 0.000000 0.000000 0.000000 -4.243799 5.884349 -5.487189 3.743804 -3.004896 -2.617169 
0.736850 0.019221 0.079743 1.488721 21.558356 -7.505272 0.000000 0.000000 0.000000 -3.853920 -0.245404 -1.607071 -0.767587 -0.229119 -0.380456 0.000000 0.000000 0.000000 -0.739213 -0.693399 -1.503694 4.158581 -1.390265 -5.355557 -0.926130 -0.673723 -2.096098 -30.075218 -5.628600 1.577112 -38.698393 14.400508 5.578934 -0.749273 -18.299787 1.598339 -1.214373 -0.224060 -0.310723 14.351189 7.491867 2.034980 60.201191 2.964179 -1.283016 0.126424 37.312007 -0.256564 0.000000 0.000000 -0.000000 -9.162997 13.242453 -3.661024 -1.057784 3.916129 19.687058 0.000000 0.000000 0.000000 -6.357386 5.093945 -7.115366 3.737789 -5.481990 0.788317 
1.007030 0.013064 0.011384 1.840172 21.381670 -7.117703 0.000000 0.000000 0.000000 -4.607168 -0.233256 -0.928397 -0.761430 -0.088430 -0.599864 0.000000 0.000000 0.000000 -0.464181 -0.712154 -1.568431 4.154403 -2.304392 -4.601001 -0.791817 -0.690416 -2.177605 -34.596805 -4.544324 1.387940 -36.499413 17.534515 4.924773 -0.444644 -18.104553 2.972542 -0.810462 -0.262324 -0.305747 13.753426 7.638197 2.145787 60.116226 5.571749 -1.669432 0.311896 39.093670 -0.237103 0.000000 0.000000 -0.000000 -10.306954 12.705009 -3.909914 -1.260425 4.212626 19.187141 0.000000 0.000000 0.000000 -7.432598 4.175937 -9.070293 3.064989 -6.577234 4.555009 
1.347753 0.013823 -0.060488 1.941415 21.603273 -6.735920 -0.000000 0.000000 0.000000 -4.959451 -0.025785 -0.874183 -0.802717 -0.001481 -0.792376 0.000000 0.000000 0.000000 -0.389109 -0.704045 -1.549202 3.988669 -2.956014 -3.833508 -0.733289 -0.741040 -2.136643 -38.136845 -3.645989 1.397305 -33.898897 17.780559 6.220627 -0.017921 -15.154987 4.621634 -0.694887 -0.263511 -0.152298 13.441518 7.601775 2.111538 60.411655 7.215689 -3.587252 0.400525 40.143708 -0.251855 0.000000 0.000000 -0.000000 -11.165001 12.363093 -4.436020 -1.306443 4.097793 19.351970 0.000000 0.000000 0.000000 -8.160741 3.315703 -10.347890 2.608104 -6.288033 7.219153 
1.732710 0.020174 -0.130672 1.954626 21.781073 -6.591906 -0.000000 0.000000 0.000000 -5.177572 0.193607 -1.107670 -0.917304 0.083883 -0.879994 0.000000 0.000000 0.000000 -0.501777 -0.722577 -1.504944 3.713691 -3.395610 -3.178633 -0.798720 -0.812815 -2.096318 -40.320004 -2.858083 1.303765 -31.739531 17.222350 7.576588 0.336921 -10.937554 5.752506 -0.774550 -0.252456 -0.057789 12.917799 7.507528 2.022309 60.966655 7.302658 -4.682795 0.512438 39.788854 -0.247619 0.000000 0.000000 -0.000000 -11.803949 12.241662 -4.812415 -1.276936 3.848831 19.691978 0.000000 0.000000 0.000000 -8.679710 2.773527 -10.865850 2.584962 -4.889878 8.764012 
2.135999 0.033649 -0.198634 1.881632 22.042406 -6.574547 -0.000000 0.000000 0.000000 -5.171108 0.419863 -1.474274 -1.066128 0.187931 -0.926768 0.000000 0.000000 0.000000 -0.681232 -0.698030 -1.467342 3.310723 -3.524476 -2.685754 -0.922413 -0.819209 -2.072379 -41.533818 -2.069515 1.161937 -30.436097 16.158702 9.058218 0.558760 -6.826866 6.214643 -1.035365 -0.198049 -0.057181 12.204366 7.418325 1.971874 61.856663 6.730387 -5.269573 0.591909 38.716003 -0.248628 0.000000 0.000000 -0.000000 -12.286573 12.186510 -5.194475 -1.253156 3.516655 20.300147 0.000000 0.000000 0.000000 -9.073073 2.395610 -10.953134 2.808951 -2.916306 9.719409 
2.529831 0.053460 -0.260317 1.747627 22.331114 -6.569847 -0.000000 0.000000 0.000000 -5.202149 0.662576 -1.892801 -1.234508 0.314272 -0.973742 0.000000 0.000000 0.000000 -0.895679 -0.620225 -1.457529 2.813919 -3.637524 -2.263668 -1.073956 -0.698328 -2.100912 -42.191029 -1.453995 1.066701 -29.644060 15.031581 10.093685 0.618959 -3.660835 6.079337 -1.319550 -0.082636 -0.078528 11.549252 7.484622 1.904661 62.753023 5.935682 -5.670464 0.639500 37.004154 -0.233600 0.000000 0.000000 -0.000000 -12.652799 12.103443 -5.563447 -1.201610 3.185368 20.838391 0.000000 0.000000 0.000000 -9.351318 1.918912 -10.855922 2.982440 -0.984196 10.244662 
2.885686 0.078157 -0.312193 1.550888 22.595152 -6.554840 -0.000000 0.000000 0.000000 -5.286983 0.893453 -2.173812 -1.338772 0.431461 -0.984638 0.000000 0.000000 0.000000 -1.074138 -0.517293 -1.439557 2.383887 -3.640392 -1.963876 -1.202380 -0.500615 -2.158393 -42.441969 -0.915237 1.058949 -29.245861 14.191417 10.560144 0.547373 -1.889530 5.689912 -1.565577 0.079984 -0.089176 11.037158 7.668390 1.888277 63.444212 5.310522 -5.904192 0.703224 34.572919 -0.195326 0.000000 0.000000 -0.000000 -12.918406 12.039716 -5.944376 -1.049638 2.877145 21.349913 0.000000 0.000000 0.000000 -9.525924 1.274598 -10.702988 2.957755 0.425143 10.515669 
3.197696 0.106683 -0.356367 1.333709 22.736644 -6.537911 -0.000000 0.000000 0.000000 -5.468480 1.091202 -2.324399 -1.408738 0.535882 -0.995123 0.000000 0.000000 0.000000 -1.222166 -0.410819 -1.450415 2.175052 -3.594420 -1.864651 -1.312619 -0.292181 -2.227025 -42.443176 -0.471736 1.060741 -29.300792 13.651185 10.590061 0.472301 -1.261577 5.316592 -1.769428 0.242396 -0.102527 10.738704 7.777116 1.846515 64.020754 4.750381 -5.897066 0.750306 32.323248 -0.177698 0.000000 0.000000 -0.000000 -13.063245 11.999235 -6.272236 -0.857830 2.640087 21.716629 0.000000 0.000000 0.000000 -9.581007 0.541698 -10.544967 2.979112 1.374253 10.554439 
3.459718 0.139635 -0.394408 1.097681 22.735807 -6.527671 -0.000000 0.000000 0.000000 -5.563559 1.205199 -2.363658 -1.473942 0.632776 -1.023403 0.000000 0.000000 0.000000 -1.368710 -0.272926 -1.516851 2.106443 -3.607581 -1.866865 -1.454340 -0.082816 -2.329865 -42.189507 -0.125377 1.049561 -29.615661 13.163597 10.320776 0.427909 -1.394154 5.099062 -1.968120 0.408778 -0.144557 10.640468 7.761922 1.812401 64.439828 4.416878 -5.278344 0.787342 30.470770 -0.169418 0.000000 0.000000 -0.000000 -13.076801 11.977678 -6.551398 -0.648381 2.515394 21.945510 0.000000 0.000000 0.000000 -9.535713 -0.160406 -10.372319 2.848503 1.702907 10.364932 
3.665388 0.176641 -0.428373 0.862028 22.620840 -6.515062 -0.000000 0.000000 0.000000 -5.627325 1.273638 -2.307805 -1.538010 0.720056 -1.070581 0.000000 0.000000 0.000000 -1.507747 -0.133510 -1.623118 2.178089 -3.642004 -1.984238 -1.582593 0.082282 -2.441164 -41.763973 0.152174 1.108841 -30.096777 12.624276 9.987227 0.407835 -1.804555 5.008417 -2.160994 0.601345 -0.209951 10.749455 7.646748 1.774361 64.534554 4.459849 -4.598385 0.800736 29.158895 -0.165697 0.000000 0.000000 -0.000000 -12.980612 11.947693 -6.785491 -0.384687 2.524335 22.042103 0.000000 0.000000 0.000000 -9.418466 -0.755420 -10.232459 2.616008 1.563153 10.052872 
